<svg aria-hidden="true" style="position: absolute; width: 0; height: 0; overflow: hidden;" version="1.1" xmlns="http://www.w3.org/2000/svg" xmlns:xlink="http://www.w3.org/1999/xlink">

  <symbol id="bike-mountain" viewBox="0 0 32 24" xmlns="http://www.w3.org/2000/svg"  >
   <path shape-rendering="geometricPrecision" class='coti-icon' d="M23.8924 9.39506C23.3651 9.39506 22.8664 9.49847 22.3872 9.64751L21.1935 6.44666H22.2195C22.3877 6.72962 22.6831 6.92861 23.036 6.92861C23.2889 6.92438 23.5301 6.82092 23.7075 6.64054C23.8849 6.46016 23.9843 6.2173 23.9843 5.9643C23.9843 5.71131 23.8849 5.46845 23.7075 5.28807C23.5301 5.10769 23.2889 5.00423 23.036 5C22.682 5 22.385 5.19926 22.2181 5.48249H20.4993C20.4213 5.48235 20.3445 5.50114 20.2754 5.53723C20.2063 5.57333 20.1469 5.62566 20.1025 5.68972C20.058 5.75379 20.0298 5.82769 20.0202 5.90507C20.0106 5.98245 20.0199 6.06101 20.0473 6.134L20.33 6.89L13.6424 9.67775L13.043 7.95893L13.6554 7.7108C14.1522 7.50938 14.0015 6.80198 13.462 6.80198H11.3671C11.0447 6.80198 10.8085 7.09115 10.8865 7.38977L11.0868 8.15738C11.1608 8.43953 11.4808 8.59208 11.7618 8.47841L12.1482 8.32181L12.9717 10.6805H11.153C11.0353 10.6804 10.9217 10.7237 10.8339 10.802L10.721 10.9033C10.2475 10.4268 9.6843 10.0488 9.06401 9.79098C8.44371 9.53315 7.77853 9.40061 7.10678 9.401C4.29122 9.401 2 11.6928 2 14.5083C2 17.3239 4.29122 19.6162 7.10678 19.6162C9.73739 19.6162 11.8842 17.6103 12.1596 15.0532H13.6802C13.7887 15.319 13.9738 15.5465 14.212 15.7068C14.4502 15.8671 14.7307 15.9529 15.0178 15.9534C15.0867 15.9514 15.1554 15.9444 15.2233 15.9326L15.7881 16.8762C15.8311 16.9475 15.8918 17.0065 15.9643 17.0473C16.0369 17.0882 16.1187 17.1096 16.202 17.1095H17.3557V16.1451H16.4747L16.0778 15.4822C16.2472 15.3052 16.3669 15.0865 16.4247 14.8484C16.4825 14.6102 16.4764 14.361 16.4069 14.126L16.5584 13.7809C16.7242 13.4029 17.6884 11.3118 18.261 10.5188C18.261 10.5188 19.465 8.8178 19.7547 8.4452C20.0444 8.0726 20.6675 7.7972 20.6675 7.7972L21.4967 10.0212C19.8918 10.8833 18.7856 12.5592 18.7856 14.5032C18.7856 17.319 21.0766 19.61 23.8924 19.61C26.7082 19.61 29 17.3185 29 14.504C29 11.6895 26.7088 9.39506 23.8924 9.39506ZM11.3374 11.6447H13.3084L13.964 13.5225C13.8144 13.6837 13.7036 13.8769 13.64 14.0874H12.172C12.0972 13.191 11.8137 12.3529 11.335 11.6471L11.3374 11.6447ZM10.599 12.2981C10.9382 12.839 11.1464 13.4518 11.207 14.0874H8.57585L10.599 12.2981ZM7.10678 18.6517C4.82231 18.6517 2.96417 16.7931 2.96417 14.5083C2.96417 12.2236 4.82231 10.366 7.10678 10.366C8.18639 10.3666 9.22278 10.7903 9.99362 11.5461L6.98447 14.2089C6.91106 14.2736 6.85911 14.3592 6.83555 14.4542C6.81199 14.5492 6.81794 14.6492 6.8526 14.7407C6.88725 14.8322 6.94898 14.9111 7.02956 14.9666C7.11013 15.0222 7.20572 15.0519 7.30361 15.0518H11.1951C10.9259 17.0779 9.20522 18.6517 7.10678 18.6517ZM14.5358 14.5056C14.5358 14.4102 14.5641 14.317 14.6171 14.2377C14.6701 14.1584 14.7454 14.0966 14.8336 14.0601C14.9217 14.0236 15.0187 14.0141 15.1122 14.0327C15.2058 14.0513 15.2917 14.0973 15.3591 14.1647C15.4266 14.2322 15.4725 14.3181 15.491 14.4117C15.5096 14.5053 15.5 14.6022 15.4635 14.6903C15.4269 14.7785 15.3651 14.8537 15.2858 14.9067C15.2064 14.9597 15.1132 14.9879 15.0178 14.9878C14.89 14.9876 14.7675 14.9366 14.6772 14.8463C14.5869 14.7559 14.536 14.6334 14.5358 14.5056V14.5056ZM17.4788 9.95261C16.8751 10.7877 15.9749 12.7317 15.7357 13.2577C15.4664 13.0869 15.1431 13.0229 14.8291 13.0781L13.961 10.5906L18.3328 8.76893L17.4788 9.95261ZM23.8919 18.6466C21.6071 18.6466 19.7493 16.7887 19.7493 14.504C19.7493 12.9717 20.5949 11.646 21.8347 10.9292L23.4007 15.1274L24.3047 14.7905L22.723 10.548C23.0965 10.4373 23.4834 10.359 23.8924 10.359C26.1769 10.359 28.0358 12.2176 28.0358 14.5021C28.0358 16.7866 26.1769 18.6453 23.8924 18.6453L23.8919 18.6466Z" />
  </symbol>
  
  <symbol id="car-sedan" viewBox="0 0 25 25" xmlns="http://www.w3.org/2000/svg">
    <path fill-rule="evenodd" clip-rule="evenodd" d="M11.1695 9.51982C10.6849 9.50137 10.1871 9.50098 9.66948 9.50098C8.6049 9.50098 7.82213 9.5654 7.16948 9.708V11H11.1695V9.51982ZM6.16948 11.9236L6.16948 13L7.16948 13L7.16948 12H11.1695V15.5H8.66948C8.64848 15.5 8.62777 15.5013 8.60745 15.5038C8.38676 14.6393 7.60277 14 6.66948 14C5.92916 14 5.28279 14.4023 4.93699 15.0001L4.59121 15.0002C4.02452 15.0005 3.58911 14.5367 3.59034 14H4.16948V13H3.66948V11.5069L6.16948 11.9236ZM6.16948 10.9098L6.16948 10.0232C5.76433 10.1946 5.37293 10.4166 4.93987 10.7048L6.16948 10.9098ZM12.1695 9.59116V11H15.8369C14.994 10.3683 14.1671 10.0078 13.3378 9.79823C12.9519 9.70072 12.5638 9.63519 12.1695 9.59116ZM2.66948 10.4985L2.66948 13L2.66948 13.4394L2.65055 13.5152C2.33489 14.7778 3.29014 16.0007 4.5916 16.0002L4.66948 16.0002C4.66959 17.1047 5.56498 18 6.66948 18C7.60277 18 8.38676 17.3608 8.60745 16.4962C8.62777 16.4987 8.64848 16.5 8.66948 16.5H16.7325C16.9545 17.3626 17.7376 18 18.6695 18C19.6014 18 20.3845 17.3626 20.6065 16.5H22.6695V14.25C22.6695 13.6291 22.3812 13.0062 21.8163 12.6523C20.271 11.6842 18.568 11.2135 17.4339 11.0593C16.1512 9.80434 14.8779 9.15604 13.5828 8.82872C12.2859 8.50094 10.9831 8.50096 9.69873 8.50098H9.69873H9.66948C8.14539 8.50098 7.07964 8.62716 6.12646 8.96725C5.21819 9.29132 4.44666 9.798 3.50355 10.4985H2.66948ZM12.1695 15.5H16.7325C16.9545 14.6374 17.7376 14 18.6695 14C19.6014 14 20.3845 14.6374 20.6065 15.5H21.6695V14.25C21.6695 13.9266 21.5208 13.6472 21.2855 13.4997C19.4967 12.3792 17.4774 12 16.6695 12H12.1695V15.5ZM17.6695 16C17.6695 16.5523 18.1172 17 18.6695 17C19.2218 17 19.6695 16.5523 19.6695 16C19.6695 15.4477 19.2218 15 18.6695 15C18.1172 15 17.6695 15.4477 17.6695 16ZM6.66948 17C7.22177 17 7.66948 16.5523 7.66948 16C7.66948 15.4477 7.22177 15 6.66948 15C6.1172 15 5.66948 15.4477 5.66948 16C5.66948 16.5523 6.1172 17 6.66948 17ZM12.6695 12.5H14.6695V13.5H12.6695V12.5ZM10.1695 12.5H8.16948V13.5H10.1695V12.5Z" />
  </symbol>

  <symbol id="motorcycle-cross" viewBox="0 0 28 10" xmlns="http://www.w3.org/2000/svg">
    <path fill-rule="evenodd" clip-rule="evenodd" d="M10.3774 0.5C10.3774 0.223858 10.3774 0.467332 10.3774 0H13.5032C13.7138 0 13.9018 0.131922 13.9734 0.329936L14.5815 2.0111C14.7842 1.42271 15.3428 1 16 1L17 1C17.1326 1 17.2598 1.05268 17.3536 1.14645C17.4473 1.24021 17.5 1.36739 17.5 1.5V3.5C17.5 3.77614 17.2761 4 17 4H16C15.7153 4 15.4491 3.92068 15.2223 3.78293L15.8861 5.61813C16.141 5.5659 16.4049 5.53846 16.675 5.53846C18.7738 5.53846 20.5 7.19533 20.5 9.26923C20.5 11.3431 18.7738 13 16.675 13C14.5891 13 12.8714 11.3636 12.8502 9.30769H9.97222C9.87479 9.30769 9.77948 9.27923 9.698 9.22579L7.95231 8.08084C8.08046 8.45349 8.15 8.85296 8.15 9.26923C8.15 11.3431 6.42384 13 4.325 13C2.22616 13 0.5 11.3431 0.5 9.26923C0.5 8.09665 1.05181 7.05739 1.91079 6.37553H1C0.723858 6.37553 0.5 6.15167 0.5 5.87553V4.40947C0.5 4.23203 0.594044 4.06788 0.747119 3.97813C3.9844 2.0802 6.88561 2.91655 8.25682 3.77538C8.93113 3.21178 9.93469 2.54952 10.9452 2.10669C11.5338 1.84871 12.1548 1.65175 12.7332 1.60648C12.9481 1.58966 13.1663 1.59336 13.379 1.62655L13.1524 1H10.3774C10.3774 0.694866 10.3774 0.776142 10.3774 0.5ZM13.9018 3.07213L14.0905 3.59375C14.092 3.62108 14.0921 3.6481 14.091 3.67477C14.08 3.94132 13.9398 4.25739 13.5679 4.5624C12.8477 5.1529 11.3254 5.63052 8.79355 5.42137V4.63174C9.38775 4.1149 10.3674 3.45169 11.3465 3.0226C11.8823 2.78781 12.3879 2.63656 12.8113 2.60343C13.2353 2.57024 13.5107 2.65857 13.6821 2.81933C13.771 2.90271 13.8437 2.9874 13.9018 3.07213ZM7.79355 4.66589C6.76571 3.98734 4.32666 3.17001 1.5 4.70144V5.37553H7.79355V4.66589ZM8.26646 6.37553C11.1579 6.68759 13.1373 6.20862 14.2019 5.33569C14.3454 5.21805 14.4733 5.09205 14.5843 4.95907L14.9405 5.9437C13.9861 6.4181 13.2598 7.27216 12.9779 8.30769H10.1216L7.17561 6.37553H8.26646ZM15.2834 6.89176C14.424 7.36314 13.85 8.25686 13.85 9.26923C13.85 10.7639 15.1011 12 16.675 12C18.2489 12 19.5 10.7639 19.5 9.26923C19.5 7.77452 18.2489 6.53846 16.675 6.53846C16.5238 6.53846 16.3755 6.54987 16.2311 6.57183L16.527 7.39014C16.5759 7.38648 16.6253 7.38462 16.675 7.38462C17.7245 7.38462 18.6 8.21493 18.6 9.26923C18.6 10.3235 17.7245 11.1538 16.675 11.1538C15.6255 11.1538 14.75 10.3235 14.75 9.26923C14.75 8.61999 15.082 8.05568 15.5822 7.71791L15.2834 6.89176ZM15.9464 8.72472C15.8226 8.87666 15.75 9.067 15.75 9.26923C15.75 9.74434 16.1505 10.1538 16.675 10.1538C17.1995 10.1538 17.6 9.74434 17.6 9.26923C17.6 8.86345 17.3079 8.50552 16.8958 8.4097L17.1452 9.09917C17.2391 9.35884 17.1047 9.6455 16.8451 9.73942C16.5854 9.83334 16.2987 9.69897 16.2048 9.4393L15.9464 8.72472ZM16.5 2H16C15.7239 2 15.5 2.22386 15.5 2.5C15.5 2.77614 15.7239 3 16 3H16.5V2ZM4.325 6.53846C2.75115 6.53846 1.5 7.77452 1.5 9.26923C1.5 10.7639 2.75115 12 4.325 12C5.89885 12 7.15 10.7639 7.15 9.26923C7.15 7.77452 5.89885 6.53846 4.325 6.53846ZM4.325 8.38461C3.80049 8.38461 3.4 8.79412 3.4 9.26923C3.4 9.74434 3.80049 10.1538 4.325 10.1538C4.84951 10.1538 5.25 9.74434 5.25 9.26923C5.25 8.79412 4.84951 8.38461 4.325 8.38461ZM2.4 9.26923C2.4 8.21493 3.2755 7.38462 4.325 7.38462C5.3745 7.38462 6.25 8.21493 6.25 9.26923C6.25 10.3235 5.3745 11.1538 4.325 11.1538C3.2755 11.1538 2.4 10.3235 2.4 9.26923Z"/>
  </symbol>

  <symbol id="ico-soat" viewBox="0 0 24 24" xmlns="http://www.w3.org/2000/svg">
    <path d="M14.6781 8.19042C15.1121 8.19042 15.4923 8.4697 15.606 8.87201L16.2875 11.281C16.6053 11.5351 16.8076 11.918 16.8076 12.3462V14.1932C16.8076 14.4273 16.7169 14.641 16.5675 14.8038L16.5673 15.1167C16.5673 15.4767 16.2813 15.7726 15.9156 15.8061L15.8461 15.8093H14.4038C14.0289 15.8093 13.7209 15.5346 13.6859 15.1834L13.6826 15.1167H10.3173C10.3173 15.4767 10.0313 15.7726 9.66556 15.8061L9.59611 15.8093H8.1538C7.77895 15.8093 7.47089 15.5346 7.43595 15.1834L7.43265 15.1167L7.43288 14.8043C7.28313 14.6414 7.19226 14.4275 7.19226 14.1932V12.3462C7.19226 11.9164 7.39601 11.5324 7.71578 11.2783L8.43532 8.86022C8.55326 8.46376 8.93055 8.19042 9.35986 8.19042H14.6781ZM7.91341 15.0876L7.91341 15.1167C7.91341 15.23 7.99845 15.3243 8.11059 15.3438L8.1538 15.3475H9.59611C9.71412 15.3475 9.81226 15.2659 9.83262 15.1582L9.83649 15.1167H8.1538C8.07079 15.1167 7.99024 15.1066 7.91341 15.0876ZM15.8461 15.1167H14.1634C14.1634 15.23 14.2484 15.3243 14.3606 15.3438L14.4038 15.3475H15.8461C15.9641 15.3475 16.0623 15.2659 16.0826 15.1582L16.0865 15.1167L16.087 15.0874C16.01 15.1065 15.9293 15.1167 15.8461 15.1167ZM15.3653 11.4227H8.63457C8.12766 11.4227 7.71237 11.7994 7.67567 12.2772L7.67303 12.3462V14.1932C7.67303 14.43 7.85863 14.6251 8.09773 14.6518L8.1538 14.6549H8.63457V14.1932C8.63457 13.9381 8.84982 13.7314 9.11534 13.7314H14.8846C15.1501 13.7314 15.3653 13.9381 15.3653 14.1932V14.6549H15.8461C16.0927 14.6549 16.2959 14.4767 16.3236 14.247L16.3269 14.1932V12.3462C16.3269 11.8593 15.9346 11.4605 15.4371 11.4252L15.3653 11.4227ZM14.8846 14.1932H9.11534V14.6549H14.8846V14.1932ZM15.125 11.6535C15.656 11.6535 16.0865 12.067 16.0865 12.577C16.0865 13.0871 15.656 13.5005 15.125 13.5005C14.5939 13.5005 14.1634 13.0871 14.1634 12.577C14.1634 12.067 14.5939 11.6535 15.125 11.6535ZM8.87495 11.6535C9.406 11.6535 9.83649 12.067 9.83649 12.577C9.83649 13.0871 9.406 13.5005 8.87495 13.5005C8.34391 13.5005 7.91341 13.0871 7.91341 12.577C7.91341 12.067 8.34391 11.6535 8.87495 11.6535ZM15.125 12.1153C14.8594 12.1153 14.6442 12.322 14.6442 12.577C14.6442 12.8321 14.8594 13.0388 15.125 13.0388C15.3905 13.0388 15.6057 12.8321 15.6057 12.577C15.6057 12.322 15.3905 12.1153 15.125 12.1153ZM8.87495 12.1153C8.60943 12.1153 8.39418 12.322 8.39418 12.577C8.39418 12.8321 8.60943 13.0388 8.87495 13.0388C9.14047 13.0388 9.35572 12.8321 9.35572 12.577C9.35572 12.322 9.14047 12.1153 8.87495 12.1153ZM13.923 12.3462V12.8079H10.0769V12.3462H13.923ZM14.6781 8.65217H9.35986C9.16472 8.65217 8.99107 8.76512 8.91681 8.93459L8.89759 8.98707L8.39418 10.7648H15.6959L15.1421 8.99297C15.0904 8.8101 14.9286 8.67807 14.7365 8.65558L14.6781 8.65217Z"/>
    <path fill-rule="evenodd" clip-rule="evenodd" d="M8.2509 8.80642C8.39391 8.32572 8.84878 8 9.3599 8H14.6781C15.1948 8 15.6534 8.3328 15.7913 8.82069L16.4567 11.1731C16.7891 11.4606 17 11.8791 17 12.3462V14.1932C17 14.4499 16.9099 14.686 16.7598 14.8737L16.7596 15.1167C16.7596 15.1167 16.7596 15.1167 16.7596 15.1167C16.7596 15.5808 16.392 15.9537 15.9333 15.9958L15.9243 15.9966L15.8461 16L14.4038 15.9998C13.9711 15.9998 13.6024 15.707 13.5117 15.3072H10.4884C10.4038 15.6798 10.0774 15.9597 9.68335 15.9958L9.67433 15.9966L9.59615 16L8.15385 15.9998C7.684 15.9998 7.28964 15.6546 7.24461 15.2021L7.24367 15.1926L7.24015 15.1165L7.24055 14.8741C7.0902 14.6863 7 14.45 7 14.1932V12.3462C7 11.8769 7.21288 11.4567 7.54784 11.1691L8.2509 8.80642C8.2509 8.80642 8.2509 8.80642 8.2509 8.80642ZM9.3599 8.38094C9.01249 8.38094 8.71272 8.60183 8.61983 8.9141L7.88324 11.3895L7.83617 11.4269C7.55893 11.6472 7.38462 11.9779 7.38462 12.3462V14.1932C7.38462 14.3776 7.45587 14.5464 7.5751 14.6761L7.62529 14.7306L7.625 15.1121L7.62782 15.169C7.65478 15.4171 7.87572 15.6189 8.15385 15.6189H9.59172L9.65197 15.6161C9.92239 15.5893 10.125 15.3715 10.125 15.1167V14.9262H13.8658L13.8778 15.169C13.9048 15.4171 14.1257 15.6189 14.4038 15.6189H15.8417L15.902 15.6161C16.1724 15.5893 16.375 15.3715 16.375 15.1167L16.3752 14.7301L16.4252 14.6757C16.5443 14.5461 16.6154 14.3774 16.6154 14.1932V12.3462C16.6154 11.9792 16.4423 11.6496 16.1668 11.4293L16.119 11.3911L15.4209 8.92345C15.3314 8.60666 15.0294 8.38094 14.6781 8.38094H9.3599ZM7.69427 11.2958L7.71578 11.2783C7.70854 11.2841 7.7014 11.2899 7.69427 11.2958ZM16.3092 11.2987C16.3021 11.2928 16.2948 11.2868 16.2875 11.281L16.3092 11.2987ZM7.43288 14.8043C7.42533 14.7961 7.41797 14.7878 7.41072 14.7793L7.43293 14.8053L7.43288 14.8043ZM16.5892 14.7794C16.5821 14.7877 16.5748 14.7958 16.5675 14.8038L16.5675 14.8048L16.5892 14.7794ZM16.5902 14.7782L16.5892 14.7794L16.5902 14.7782ZM7.43626 15.186C7.43617 15.1852 7.43603 15.1842 7.43595 15.1834L7.43626 15.186ZM10.3173 15.1167C10.3173 15.2802 10.2583 15.4306 10.1595 15.5491C10.2413 15.4511 10.2958 15.3312 10.3121 15.2003L10.3226 15.1167L10.3173 15.1167ZM13.6826 15.1167L13.6774 15.1167L13.6879 15.2002C13.721 15.4653 13.9102 15.6845 14.1647 15.7704C13.9057 15.6829 13.7144 15.4575 13.6863 15.186L13.6857 15.181L13.6826 15.1167Z"/>
    <path fill-rule="evenodd" clip-rule="evenodd" d="M12 2L4 5.24083V11.1774C4 15.2408 6.25 18.9574 9.86 20.8603L12 22L14.14 20.8702C17.75 18.9574 20 15.2408 20 11.1774V5.24083L12 2ZM19 11.1774C19 14.8741 16.96 18.2537 13.66 19.9881L12 20.8702L10.34 19.9881C7.04 18.2537 5 14.8741 5 11.1774V5.91477L12 3.08028L19 5.91477V11.1774Z"/>
  </symbol>

  <symbol id="trash" viewBox="4 3 18 20" xmlns="http://www.w3.org/2000/svg">
    <path fill-rule="evenodd" clip-rule="evenodd" d="M14.2857 3H9.71429V5.11765H5.14286C4.47012 5.11765 4 5.69839 4 6.35294V8.29412H5.14286V21H18.8571V8.29412H20V6.35294C20 5.69839 19.5299 5.11765 18.8571 5.11765H14.2857V3ZM17.7143 8.29412H6.28571V19.9412H17.7143V8.29412ZM18.8571 7.23529V6.35294C18.8571 6.29883 18.8494 6.25852 18.8439 6.23019L18.8439 6.23019L18.8439 6.23018L18.8439 6.23016C18.8393 6.2061 18.8363 6.19068 18.8412 6.18281L18.8571 6.17647L14.2857 6.17647H9.71429L5.14286 6.17647C5.16644 6.17647 5.16325 6.19301 5.15609 6.23019C5.15063 6.25851 5.14286 6.29883 5.14286 6.35294V7.23529H18.8571ZM13.1429 5.11765V4.05882H10.8571V5.11765H13.1429ZM9.14286 18.8824V9.35294H8V18.8824H9.14286ZM12.5714 9.35294V18.8824H11.4286V9.35294H12.5714ZM16 9.35294V18.8824H14.8571V9.35294H16Z"/>
  </symbol>

  <symbol id="close-ico" viewBox="0 0 17 17" xmlns="http://www.w3.org/2000/svg">
    <path fill-rule="evenodd" clip-rule="evenodd" d="M0 15.707L0.707 16.414L8.207 8.914L15.707 16.414L16.414 15.707L8.914 8.207L16.414 0.707L15.707 0L8.207 7.5L0.707 0L0 0.707L7.5 8.207L0 15.707Z"/>
  </symbol>

  <symbol id="face-sad" viewBox="0 0 24 24" xmlns="http://www.w3.org/2000/svg">
    <path fill-rule="evenodd" clip-rule="evenodd" d="M3 12C3 7.038 7.038 3 12 3C16.962 3 21 7.038 21 12C21 16.962 16.962 21 12 21C7.038 21 3 16.962 3 12ZM2 12C2 17.514 6.486 22 12 22C17.514 22 22 17.514 22 12C22 6.486 17.514 2 12 2C6.486 2 2 6.486 2 12ZM12 14C13.4805 14 14.7732 14.8044 15.4648 16H16.5839C15.8124 14.2341 14.0503 13 12 13C9.94965 13 8.18757 14.2341 7.41602 16H8.5351C9.22672 14.8044 10.5194 14 12 14ZM10 9C10 9.55228 9.55228 10 9 10C8.44772 10 8 9.55228 8 9C8 8.44772 8.44772 8 9 8C9.55228 8 10 8.44772 10 9ZM15 10C15.5523 10 16 9.55228 16 9C16 8.44772 15.5523 8 15 8C14.4477 8 14 8.44772 14 9C14 9.55228 14.4477 10 15 10Z"/>
  </symbol>

  <symbol id="version-motorcycle" viewBox="0 0 24 24" xmlns="http://www.w3.org/2000/svg">
    <path fill-rule="evenodd" clip-rule="evenodd" d="M11.7465 3.06903C11.903 2.97699 12.097 2.97699 12.2535 3.06903L20.7535 8.06903C20.9062 8.15887 21 8.32282 21 8.5C21 8.67718 20.9062 8.84113 20.7535 8.93097L12.2535 13.931C12.097 14.023 11.903 14.023 11.7465 13.931L3.24649 8.93097C3.09377 8.84113 3 8.67718 3 8.5C3 8.32282 3.09377 8.15887 3.24649 8.06903L11.7465 3.06903ZM4.48615 8.5L12 12.9199L19.5138 8.5L12 4.08009L4.48615 8.5Z"/>
    <path fill-rule="evenodd" clip-rule="evenodd" d="M4.83708 11.2573C4.97119 11.4987 4.88421 11.8031 4.64282 11.9372L4.50724 12.0125L12 16.42L19.5359 11.9871L19.435 11.9241C19.2008 11.7777 19.1296 11.4693 19.276 11.2351C19.4224 11.0009 19.7308 10.9297 19.965 11.0761L20.765 11.5761C20.9132 11.6687 21.0023 11.832 21 12.0068C20.9976 12.1816 20.9042 12.3424 20.7535 12.4311L12.2535 17.4311C12.097 17.5231 11.903 17.5231 11.7465 17.4311L3.24649 12.4311C3.09188 12.3401 2.99783 12.1733 3.00004 11.9939C3.00225 11.8146 3.10037 11.6501 3.25718 11.563L4.15718 11.063C4.39857 10.9289 4.70297 11.0159 4.83708 11.2573Z"/>
    <path fill-rule="evenodd" clip-rule="evenodd" d="M4.83708 14.7573C4.97119 14.9987 4.88421 15.3031 4.64282 15.4372L4.50724 15.5125L12 19.92L19.5359 15.4871L19.435 15.4241C19.2008 15.2777 19.1296 14.9693 19.276 14.7351C19.4224 14.5009 19.7308 14.4297 19.965 14.5761L20.765 15.0761C20.9132 15.1687 21.0023 15.332 21 15.5068C20.9976 15.6816 20.9042 15.8424 20.7535 15.9311L12.2535 20.9311C12.097 21.0231 11.903 21.0231 11.7465 20.9311L3.24649 15.9311C3.09188 15.8401 2.99783 15.6733 3.00004 15.4939C3.00225 15.3146 3.10037 15.1501 3.25718 15.063L4.15718 14.563C4.39857 14.4289 4.70297 14.5159 4.83708 14.7573Z"/>
  </symbol>

  <symbol id="secondary-menu" viewBox="0 0 3 13" xmlns="http://www.w3.org/2000/svg">
    <path fill-rule="evenodd" clip-rule="evenodd" d="M1.5 2C1.77614 2 2 1.77614 2 1.5C2 1.22386 1.77614 1 1.5 1C1.22386 1 1 1.22386 1 1.5C1 1.77614 1.22386 2 1.5 2ZM1.5 3C2.32843 3 3 2.32843 3 1.5C3 0.671573 2.32843 0 1.5 0C0.671573 0 0 0.671573 0 1.5C0 2.32843 0.671573 3 1.5 3ZM1.5 7C1.77614 7 2 6.77614 2 6.5C2 6.22386 1.77614 6 1.5 6C1.22386 6 1 6.22386 1 6.5C1 6.77614 1.22386 7 1.5 7ZM1.5 8C2.32843 8 3 7.32843 3 6.5C3 5.67157 2.32843 5 1.5 5C0.671573 5 0 5.67157 0 6.5C0 7.32843 0.671573 8 1.5 8ZM2 11.5C2 11.7761 1.77614 12 1.5 12C1.22386 12 1 11.7761 1 11.5C1 11.2239 1.22386 11 1.5 11C1.77614 11 2 11.2239 2 11.5ZM3 11.5C3 12.3284 2.32843 13 1.5 13C0.671573 13 0 12.3284 0 11.5C0 10.6716 0.671573 10 1.5 10C2.32843 10 3 10.6716 3 11.5Z"/>
  </symbol>

  <symbol id="ico-info" viewBox="0 0 20 21" fill="none" xmlns="http://www.w3.org/2000/svg">
    <path fill-rule="evenodd" clip-rule="evenodd" d="M9.99935 18.0013C14.1415 18.0013 17.4993 14.6434 17.4993 10.5013C17.4993 6.35917 14.1415 3.0013 9.99935 3.0013C5.85721 3.0013 2.49935 6.35917 2.49935 10.5013C2.49935 14.6434 5.85721 18.0013 9.99935 18.0013ZM9.99935 18.8346C14.6017 18.8346 18.3327 15.1037 18.3327 10.5013C18.3327 5.89893 14.6017 2.16797 9.99935 2.16797C5.39698 2.16797 1.66602 5.89893 1.66602 10.5013C1.66602 15.1037 5.39698 18.8346 9.99935 18.8346ZM10.8327 13.7174V12.3858V10.2734V9.78517C10.8327 9.54202 10.7393 9.28556 10.5893 9.11271C10.4443 8.94744 10.2077 8.82397 9.99935 8.83536C9.78435 8.84676 9.561 8.92655 9.40935 9.11271C9.25935 9.29888 9.16602 9.52684 9.16602 9.78517V11.1168V13.2292V13.7174C9.16602 13.9606 9.25935 14.217 9.40935 14.3899C9.55435 14.5552 9.79101 14.6786 9.99935 14.6672C10.2144 14.6558 10.4377 14.5761 10.5893 14.3899C10.7377 14.2037 10.8327 13.9758 10.8327 13.7174ZM9.99935 8.0013C10.4596 8.0013 10.8327 7.62821 10.8327 7.16797C10.8327 6.70773 10.4596 6.33464 9.99935 6.33464C9.53911 6.33464 9.16602 6.70773 9.16602 7.16797C9.16602 7.62821 9.53911 8.0013 9.99935 8.0013Z" fill="#2C2A29"/>
  </symbol>

  <symbol id="active-icon" width="20" height="20" viewBox="0 0 20 20" fill="none" xmlns="http://www.w3.org/2000/svg">
	  <circle cx="10" cy="10" r="10" fill="#00C389"/>
	  <path fill-rule="evenodd" clip-rule="evenodd" d="M4.73633 9.99753C4.73633 7.09077 7.09272 4.73438 9.99949 4.73438C12.9062 4.73438 15.2626 7.09077 15.2626 9.99753C15.2626 12.9043 12.9062 15.2607 9.99949 15.2607C7.09272 15.2607 4.73633 12.9043 4.73633 9.99753ZM14.7614 9.99753C14.7614 7.36761 12.6294 5.23563 9.99949 5.23563C7.36956 5.23563 5.23758 7.36761 5.23758 9.99753C5.23758 12.6275 7.36956 14.7594 9.99949 14.7594C12.6294 14.7594 14.7614 12.6275 14.7614 9.99753ZM10.2149 11.5023V11.6445H9.64773V11.4118C9.64773 11.0756 9.70049 10.7991 9.80602 10.5822C9.91155 10.3652 10.1079 10.1361 10.3952 9.89476C10.7939 9.56435 11.0452 9.31582 11.1493 9.14918C11.2534 8.98254 11.3054 8.78142 11.3054 8.54582C11.3054 8.25276 11.2094 8.0265 11.0174 7.86704C10.8254 7.70758 10.5491 7.62785 10.1886 7.62785C9.95698 7.62785 9.73127 7.65443 9.51142 7.70758C9.29158 7.76074 9.03948 7.8577 8.75515 7.99849L8.49573 7.41668C9.04974 7.13223 9.62868 6.99001 10.2325 6.99001C10.7924 6.99001 11.2277 7.12505 11.5384 7.39513C11.8491 7.6652 12.0045 8.04589 12.0045 8.5372C12.0045 8.74694 11.9759 8.93154 11.9188 9.091C11.8616 9.25046 11.7773 9.4013 11.6659 9.54352C11.5545 9.68574 11.3142 9.91487 10.9448 10.2309C10.6488 10.478 10.4531 10.6834 10.3578 10.8472C10.2626 11.011 10.2149 11.2293 10.2149 11.5023ZM10.3512 13.3533C10.2574 13.4553 10.127 13.5063 9.95991 13.5063C9.80749 13.5063 9.68144 13.4611 9.58178 13.3705C9.48211 13.28 9.43228 13.1314 9.43228 12.9245C9.43228 12.5337 9.60816 12.3384 9.95991 12.3384C10.1299 12.3384 10.2611 12.3887 10.3534 12.4892C10.4458 12.5898 10.4919 12.7349 10.4919 12.9245C10.4919 13.1084 10.445 13.2513 10.3512 13.3533Z" fill="#2C2A29"/>
  </symbol>

  <symbol id="ico-geo" width="24" height="24" viewBox="0 0 24 24" fill="none" xmlns="http://www.w3.org/2000/svg">
    <path d="M24 12C24 18.6274 18.6274 24 12 24C5.37258 24 0 18.6274 0 12C0 5.37258 5.37258 0 12 0C18.6274 0 24 5.37258 24 12Z" fill="#F2F2F4"/>
    <path fill-rule="evenodd" clip-rule="evenodd" d="M12 23C18.0751 23 23 18.0751 23 12C23 5.92487 18.0751 1 12 1C5.92487 1 1 5.92487 1 12C1 18.0751 5.92487 23 12 23ZM12 24C18.6274 24 24 18.6274 24 12C24 5.37258 18.6274 0 12 0C5.37258 0 0 5.37258 0 12C0 18.6274 5.37258 24 12 24Z" fill="#7D7F82"/>
    <path fill-rule="evenodd" clip-rule="evenodd" d="M7.33464 10.6654C7.33464 8.09203 9.42797 5.9987 12.0013 5.9987C14.5746 5.9987 16.668 8.09203 16.668 10.6654C16.668 14.3034 12.8893 17.276 12.0013 17.924C11.1126 17.2767 7.33464 14.308 7.33464 10.6654ZM11.8166 18.6094L12.0013 18.7327L12.186 18.6094C12.3966 18.4694 17.3346 15.1254 17.3346 10.6654C17.3346 7.7247 14.942 5.33203 12.0013 5.33203C9.06064 5.33203 6.66797 7.7247 6.66797 10.6654C6.66797 15.1254 11.606 18.4694 11.8166 18.6094ZM10.0013 10.6654C10.0013 9.5627 10.8986 8.66536 12.0013 8.66536C13.104 8.66536 14.0013 9.5627 14.0013 10.6654C14.0013 11.768 13.104 12.6654 12.0013 12.6654C10.8986 12.6654 10.0013 11.768 10.0013 10.6654ZM9.33464 10.6654C9.33464 12.136 10.5306 13.332 12.0013 13.332C13.472 13.332 14.668 12.136 14.668 10.6654C14.668 9.1947 13.472 7.9987 12.0013 7.9987C10.5306 7.9987 9.33464 9.1947 9.33464 10.6654Z" fill="#7D7F82"/>
  </symbol>

  <symbol id="van" viewBox="0 0 25 10" xmlns="http://www.w3.org/2000/svg">
    <path fill-rule="evenodd" clip-rule="evenodd" d="M1.97556 0.5H12.0933C13.0216 0.5 13.9118 0.86875 14.5682 1.52513L16.5716 3.5286L18.6188 3.82104C19.6014 3.96142 20.332 4.80109 20.3359 5.79288L20.6895 6.14645C20.7833 6.24021 20.8359 6.36739 20.8359 6.5V9H18.8222C18.6978 10.125 17.7441 11 16.5859 11C15.4278 11 14.474 10.125 14.3497 9H7.82221C7.69784 10.125 6.74408 11 5.58594 11C4.41415 11 3.45158 10.1042 3.34562 8.96013C1.922 8.72609 0.835938 7.48988 0.835938 6V4C0.835938 3.94626 0.844601 3.89287 0.861596 3.84189L1.97556 0.5ZM19.8359 8H18.7079C18.399 7.12611 17.5656 6.5 16.5859 6.5C15.6063 6.5 14.7728 7.12611 14.464 8H7.70791C7.39903 7.12611 6.5656 6.5 5.58594 6.5C4.61841 6.5 3.79352 7.11069 3.47569 7.96764C2.54306 7.798 1.83594 6.98158 1.83594 6V4.5H4.83594V5.5H5.83594V4.5H9.83594V7H10.8359V4.5H16.3004L18.4774 4.81099C18.97 4.88137 19.3359 5.30329 19.3359 5.80094V6C19.3359 6.13261 19.3886 6.25979 19.4824 6.35355L19.8359 6.70711V8ZM5.83594 3.5H9.83594V1.5H5.83594V3.5ZM4.83594 1.5H2.69632L2.02965 3.5H4.83594V1.5ZM15.1288 3.5H10.8359V1.5H12.0933C12.7563 1.5 13.3922 1.76339 13.8611 2.23223L15.1288 3.5ZM16.5859 10C17.2763 10 17.8359 9.44036 17.8359 8.75C17.8359 8.05964 17.2763 7.5 16.5859 7.5C15.8956 7.5 15.3359 8.05964 15.3359 8.75C15.3359 9.44036 15.8956 10 16.5859 10ZM5.58594 10C6.27629 10 6.83594 9.44036 6.83594 8.75C6.83594 8.05964 6.27629 7.5 5.58594 7.5C4.89558 7.5 4.33594 8.05964 4.33594 8.75C4.33594 9.44036 4.89558 10 5.58594 10ZM12.3359 5H13.8359V6H12.3359V5ZM8.33594 5H6.83594V6H8.33594V5Z" />
  </symbol>

</svg>
